<svg width="101" height="100" viewBox="0 0 101 100" fill="none" xmlns="http://www.w3.org/2000/svg">
<rect x="0.5" width="100" height="100" rx="24" fill="#3374F2" fill-opacity="0.08"/>
<g clip-path="url(#clip0)">
<path d="M50.5 45.3716C55.0046 45.3716 58.6562 41.7199 58.6562 37.2153C58.6562 32.7108 55.0046 29.0591 50.5 29.0591C45.9954 29.0591 42.3438 32.7108 42.3438 37.2153C42.3438 41.7199 45.9954 45.3716 50.5 45.3716Z" fill="#3374F2"/>
<path d="M67 45.3715C69.8477 45.3715 72.1562 43.0629 72.1562 40.2152C72.1562 37.3675 69.8477 35.059 67 35.059C64.1523 35.059 61.8438 37.3675 61.8438 40.2152C61.8438 43.0629 64.1523 45.3715 67 45.3715Z" fill="#3374F2"/>
<path d="M34 45.3715C36.8477 45.3715 39.1562 43.0629 39.1562 40.2152C39.1562 37.3675 36.8477 35.059 34 35.059C31.1523 35.059 28.8438 37.3675 28.8438 40.2152C28.8438 43.0629 31.1523 45.3715 34 45.3715Z" fill="#3374F2"/>
<path d="M39.0803 50.0018C37.0506 48.3388 35.2125 48.559 32.8656 48.559C29.3556 48.559 26.5 51.3977 26.5 54.8861V65.1246C26.5 66.6396 27.7366 67.8715 29.2572 67.8715C35.8221 67.8715 35.0312 67.9902 35.0312 67.5883C35.0312 60.3334 34.1719 55.013 39.0803 50.0018Z" fill="#3374F2"/>
<path d="M52.7322 48.5965C48.6331 48.2546 45.0701 48.6004 41.9969 51.1371C36.8541 55.2565 37.8438 60.803 37.8438 67.5883C37.8438 69.3835 39.3044 70.8714 41.1269 70.8714C60.9158 70.8714 61.7034 71.5098 62.8769 68.9111C63.2617 68.0323 63.1563 68.3116 63.1563 59.9046C63.1563 53.2271 57.3744 48.5965 52.7322 48.5965Z" fill="#3374F2"/>
<path d="M68.1344 48.559C65.7747 48.559 63.9466 48.3411 61.9197 50.0018C66.7914 54.9758 65.9687 59.9332 65.9687 67.5883C65.9687 67.9928 65.3122 67.8715 71.6444 67.8715C73.2194 67.8715 74.5 66.5955 74.5 65.0271V54.8862C74.5 51.3977 71.6444 48.559 68.1344 48.559Z" fill="#3374F2"/>
</g>
<defs>
<clipPath id="clip0">
<rect width="48" height="48" fill="white" transform="translate(26.5 26)"/>
</clipPath>
</defs>
</svg>
