<svg width="101" height="100" viewBox="0 0 101 100" fill="none" xmlns="http://www.w3.org/2000/svg">
<rect x="0.5" width="100" height="100" rx="24" fill="#3374F2" fill-opacity="0.08"/>
<g clip-path="url(#clip0)">
<path d="M43.5015 73.4833C46.7145 73.4833 49.3192 70.8786 49.3192 67.6655C49.3192 64.4525 46.7145 61.8478 43.5015 61.8478C40.2884 61.8478 37.6837 64.4525 37.6837 67.6655C37.6837 70.8786 40.2884 73.4833 43.5015 73.4833Z" fill="#3374F2"/>
<path d="M62.1409 61.7914C58.9122 61.4736 56.0373 63.8334 55.7196 67.062C55.4019 70.2907 57.7616 73.1656 60.9903 73.4834C61.3729 73.521 61.7583 73.521 62.1409 73.4834C65.3696 73.1656 67.7293 70.2907 67.4116 67.062C67.1371 64.2726 64.9302 62.0658 62.1409 61.7914Z" fill="#3374F2"/>
<path d="M74.1152 39.65C73.8262 39.2172 73.3365 38.9617 72.8161 38.9722H66.377V38.8592C66.3775 32.0275 60.8397 26.489 54.008 26.4885C47.1764 26.4881 41.6379 32.0258 41.6375 38.8575C41.6375 38.8581 41.6375 38.8586 41.6375 38.8592V38.9722H36.8364L35.1984 31.5164C35.0165 30.758 34.3403 30.2217 33.5604 30.2173H26.5V33.6063H32.2048L37.4577 57.7245C37.5964 58.5175 38.2908 59.0921 39.0957 59.0801H68.6364C69.4163 59.0756 70.0923 58.5395 70.2744 57.781L74.4541 41.062C74.5767 40.5642 74.4504 40.0378 74.1152 39.65ZM54.0072 47.84C49.0473 47.84 45.0264 43.8191 45.0264 38.8592C45.0264 33.8993 49.0473 29.8784 54.0072 29.8784C58.9672 29.8784 62.988 33.8993 62.988 38.8592C62.9573 43.8063 58.9544 47.8091 54.0072 47.84Z" fill="#3374F2"/>
<path d="M52.6517 39.0287L49.5451 35.8657L47.1163 38.2379L51.409 42.5871C51.7219 42.9064 52.1482 43.0891 52.5952 43.0955C53.0364 43.1171 53.4664 42.9533 53.7813 42.6436L60.8982 35.9221L58.5824 33.4369L52.6517 39.0287Z" fill="#3374F2"/>
</g>
<defs>
<clipPath id="clip0">
<rect width="48" height="48" fill="white" transform="translate(26.5 26)"/>
</clipPath>
</defs>
</svg>
