<svg width="101" height="100" viewBox="0 0 101 100" fill="none" xmlns="http://www.w3.org/2000/svg">
<rect x="0.5" width="100" height="100" rx="24" fill="#3374F2" fill-opacity="0.08"/>
<g clip-path="url(#clip0)">
<path d="M44.2181 51.0283L45.49 49.2392L42.736 48.3756L38.2839 42.1132L33.8318 48.3756L26.5 50.6745L31.0803 56.8439L31.001 64.5273L38.2839 62.0777L40.2194 62.7287L33.9282 54.2547L44.2181 51.0283Z" fill="#3374F2"/>
<path d="M74.5 50.6745L67.1682 48.3756L62.7162 42.1132L58.2641 48.3756L55.4551 49.2563L56.7148 51.0283L67.0046 54.2547L60.6911 62.7588L62.7162 62.0777L69.9991 64.5274L69.9198 56.8439L74.5 50.6745Z" fill="#3374F2"/>
<path d="M49.0601 30.3475H51.8726V37.9645H49.0601V30.3475Z" fill="#3374F2"/>
<path d="M40.7385 37.2875L42.727 35.299L45.9777 38.5497L43.9892 40.5382L40.7385 37.2875Z" fill="#3374F2"/>
<path d="M54.9475 38.5513L58.1981 35.3006L60.1866 37.2891L56.936 40.5397L54.9475 38.5513Z" fill="#3374F2"/>
<path d="M62.2503 55.7995L54.9185 53.5005L50.4665 47.238L46.0144 53.5005L38.6826 55.7995L43.2629 61.9689L43.1836 69.6522L50.4665 67.2026L57.7494 69.6524L57.6701 61.9689L62.2503 55.7995Z" fill="#3374F2"/>
</g>
<defs>
<clipPath id="clip0">
<rect width="48" height="48" fill="white" transform="translate(26.5 26)"/>
</clipPath>
</defs>
</svg>
