<svg width="28" height="28" viewBox="0 0 28 28" fill="none" xmlns="http://www.w3.org/2000/svg">
<path d="M9.91761 27.6985C11.7919 27.6985 13.3113 26.1791 13.3113 24.3048C13.3113 22.4305 11.7919 20.9111 9.91761 20.9111C8.04333 20.9111 6.52393 22.4305 6.52393 24.3048C6.52393 26.1791 8.04333 27.6985 9.91761 27.6985Z" fill="#3374F2"/>
<path d="M20.7903 20.8783C18.9069 20.693 17.2299 22.0695 17.0446 23.9529C16.8592 25.8363 18.2357 27.5133 20.1191 27.6986C20.3423 27.7206 20.5671 27.7206 20.7903 27.6986C22.6737 27.5133 24.0502 25.8363 23.8649 23.9529C23.7048 22.3257 22.4174 21.0384 20.7903 20.8783Z" fill="#3374F2"/>
<path d="M27.7755 7.96241C27.6069 7.70996 27.3213 7.56092 27.0177 7.56703H23.2616V7.50114C23.2619 3.51598 20.0315 0.28517 16.0463 0.284912C12.0613 0.284655 8.83044 3.51502 8.83018 7.50017C8.83018 7.50049 8.83018 7.50081 8.83018 7.50114V7.56703H6.02957L5.07406 3.21784C4.96794 2.77542 4.57353 2.4626 4.11856 2.46002H0V4.43693H3.32779L6.392 18.5059C6.47289 18.9685 6.87799 19.3037 7.3475 19.2967H24.5795C25.0345 19.294 25.4289 18.9813 25.535 18.5389L27.9732 8.78613C28.0447 8.4957 27.971 8.18868 27.7755 7.96241ZM16.0459 12.7399C13.1526 12.7399 10.8071 10.3944 10.8071 7.50114C10.8071 4.60785 13.1526 2.26233 16.0459 2.26233C18.9392 2.26233 21.2847 4.60785 21.2847 7.50114C21.2667 10.387 18.9317 12.7219 16.0459 12.7399Z" fill="#3374F2"/>
<path d="M15.2553 7.60003L13.4432 5.75492L12.0264 7.13875L14.5304 9.67578C14.713 9.86202 14.9616 9.96859 15.2224 9.97232C15.4797 9.98493 15.7306 9.88937 15.9143 9.70873L20.0658 5.78787L18.7149 4.33813L15.2553 7.60003Z" fill="#3374F2"/>
</svg>
