<svg width="19" height="27" viewBox="0 0 19 27" fill="none" xmlns="http://www.w3.org/2000/svg">
<path d="M19.0002 16.625C19.0002 15.9239 18.7225 15.2705 18.2407 14.7887C18.7855 14.1925 19.0632 13.3933 18.9873 12.5615C18.8508 11.0787 17.5149 9.91667 15.9447 9.91667H8.73815C9.09515 8.83282 9.6668 6.84602 9.6668 5.25002C9.6668 2.71952 7.51665 0.583374 6.1668 0.583374C4.95465 0.583374 4.08894 1.26587 4.05165 1.29387C3.914 1.40473 3.8335 1.57273 3.8335 1.75002V5.70617L0.473496 12.985L0.333496 13.0562V25.5605C1.28314 26.0085 2.48479 26.25 3.25015 26.25H13.959C15.2295 26.25 16.3414 25.3937 16.6026 24.2119C16.7368 23.604 16.6587 22.9915 16.3915 22.4595C17.2537 22.0255 17.8335 21.1377 17.8335 20.125C17.8335 19.712 17.739 19.3165 17.5594 18.9584C18.4215 18.5244 19.0002 17.6365 19.0002 16.625Z" fill="#3374F2"/>
</svg>
