<svg width="28" height="28" viewBox="0 0 28 28" fill="none" xmlns="http://www.w3.org/2000/svg">
<g clip-path="url(#clip0_31:326)">
<path d="M10.3356 14.5999L11.0775 13.5563L9.471 13.0525L6.87395 9.39941L4.27689 13.0525L0 14.3935L2.67181 17.9924L2.6256 22.4743L6.87395 21.0454L8.00297 21.4251L4.33311 16.482L10.3356 14.5999Z" fill="#3374F2"/>
<path d="M28.0002 14.3935L23.7233 13.0525L21.1263 9.39941L18.5292 13.0525L16.8906 13.5663L17.6255 14.5999L23.6278 16.482L19.945 21.4427L21.1263 21.0454L25.3746 22.4744L25.3284 17.9924L28.0002 14.3935Z" fill="#3374F2"/>
<path d="M13.1602 2.53613H14.8008V6.97938H13.1602V2.53613Z" fill="#3374F2"/>
<path d="M8.30566 6.58447L9.46559 5.42455L11.3618 7.32079L10.2019 8.48071L8.30566 6.58447Z" fill="#3374F2"/>
<path d="M16.5942 7.32166L18.4904 5.42546L19.6504 6.58538L17.7542 8.48158L16.5942 7.32166Z" fill="#3374F2"/>
<path d="M20.8543 17.3831L16.5774 16.042L13.9804 12.3889L11.3833 16.042L7.10645 17.3831L9.77826 20.9819L9.73199 25.4638L13.9804 24.0349L18.2287 25.4639L18.1825 20.9819L20.8543 17.3831Z" fill="#3374F2"/>
</g>
<defs>
<clipPath id="clip0_31:326">
<rect width="28" height="28" fill="white"/>
</clipPath>
</defs>
</svg>
