<?xml version="1.0" encoding="UTF-8"?>
<svg width="40" height="40" fill="none" version="1.1" viewBox="0 0 40 40" xmlns="http://www.w3.org/2000/svg">
 <g transform="translate(-.2291 3.6655)" filter="url(#filter0_d_27:70)">
  <path d="m9.843 0c-3.2368 0-5.843 2.6062-5.843 5.843v20.314c0 3.2367 2.6062 5.843 5.843 5.843h11.01v-12.51h-3.308v-4.504h3.308v-3.848c0-3.0232 1.9546-5.799 6.457-5.799 1.823 0 3.171 0.175 3.171 0.175l-0.106 4.206s-1.3748-0.01299-2.875-0.01299c-1.6236 0-1.884 0.74808-1.884 1.99v3.289h4.888l-0.213 4.504h-4.675v12.51h4.541c3.2368 0 5.843-2.6062 5.843-5.843v-20.314c0-3.2368-2.6062-5.843-5.843-5.843h-20.314z" fill="#4d649e"/>
  <path d="m30.157 31.5h-4.041v-11.51h4.6519l0.0226-0.4764 0.2129-4.504 0.0248-0.5236h-4.9122v-2.789c0-0.6194 0.0738-0.9571 0.2268-1.1524 0.1278-0.1632 0.406-0.3376 1.1572-0.3376 0.7488 0 1.4664 0.0033 1.997 0.0065 0.2653 0.0016 0.4837 0.0033 0.6358 0.0045l0.1758 0.0014 0.046 4e-4 0.0118 2e-4h0.0039l0.4921 0.0046 0.0125-0.49199 0.106-4.206 0.0113-0.45043-0.4468-0.058-0.0644 0.49583 0.0643-0.49585-1e-4 -1e-5 -4e-4 -5e-5 -0.0011-1.4e-4 -0.0036-4.6e-4 -0.013-0.00164-0.0488-0.0059c-0.0423-0.00501-0.1042-0.01208-0.1837-0.02051-0.1591-0.01685-0.3893-0.03917-0.6769-0.06145-0.5747-0.04452-1.3807-0.08899-2.3077-0.08899-2.3573 0-4.1103 0.72955-5.2738 1.9157-1.1594 1.1818-1.6832 2.7659-1.6832 4.3833v3.348h-3.308v5.504h3.308v11.51h-10.51c-2.9606 0-5.343-2.3824-5.343-5.343v-20.314c0-2.9544 2.3723-5.3329 5.3242-5.343h20.333c2.9606 0 5.343 2.3824 5.343 5.343v20.314c0 2.9606-2.3824 5.343-5.343 5.343z" stroke="#000"/>
 </g>
 <defs>
  <filter id="filter0_d_27:70" x="0" y="0" width="40" height="40" color-interpolation-filters="sRGB" filterUnits="userSpaceOnUse">
   <feFlood flood-opacity="0" result="BackgroundImageFix"/>
   <feColorMatrix in="SourceAlpha" result="hardAlpha" values="0 0 0 0 0 0 0 0 0 0 0 0 0 0 0 0 0 0 127 0"/>
   <feOffset dy="4"/>
   <feGaussianBlur stdDeviation="2"/>
   <feComposite in2="hardAlpha" operator="out"/>
   <feColorMatrix values="0 0 0 0 0 0 0 0 0 0 0 0 0 0 0 0 0 0 0.25 0"/>
   <feBlend in2="BackgroundImageFix" result="effect1_dropShadow_27:70"/>
   <feBlend in="SourceGraphic" in2="effect1_dropShadow_27:70" result="shape"/>
  </filter>
 </defs>
 <rect x="4.0149" y="-.021229" width="31.953" height="32.003" fill="none" stroke-width="1.0006"/>
</svg>
