<svg width="101" height="100" viewBox="0 0 101 100" fill="none" xmlns="http://www.w3.org/2000/svg">
<rect x="0.5" width="100" height="100" rx="24" fill="#3374F2" fill-opacity="0.08"/>
<g clip-path="url(#clip0)">
<path d="M37.3438 53.6365V72.5H42.9688V48.0115L37.3438 53.6365Z" fill="#3374F2"/>
<path d="M45.7812 48.0115V72.5H51.4062V53.6365L45.7812 48.0115Z" fill="#3374F2"/>
<path d="M54.2188 53.6365V72.5H59.8438V48.0115L54.2188 53.6365Z" fill="#3374F2"/>
<path d="M68.787 39.1621L62.6562 45.199V72.5H69.7812C70.5585 72.5 71.1875 71.8711 71.1875 71.0938V40.1563C71.1875 38.9114 69.6745 38.2745 68.787 39.1621Z" fill="#3374F2"/>
<path d="M26.412 64.4745C26.1483 64.7382 26 65.0953 26 65.4688V71.0938C26 71.871 26.629 72.5 27.4062 72.5H34.5312V56.449L26.412 64.4745Z" fill="#3374F2"/>
<path d="M72.5938 27.5H66.9688C66.1915 27.5 65.5625 28.129 65.5625 28.9062C65.5625 29.6835 66.1915 30.3125 66.9688 30.3125H69.6811L52.8125 47.0873L45.3692 39.644C44.82 39.0947 43.93 39.0947 43.3807 39.644L26.412 56.519C25.8627 57.0683 25.8627 57.9583 26.412 58.5075C26.9612 59.0568 27.8512 59.0568 28.4005 58.5075L44.375 42.6268L51.8183 50.0701C52.3676 50.6194 53.2576 50.6194 53.8068 50.0701L71.1875 32.7831V34.5312C71.1875 35.3085 71.8165 35.9375 72.5938 35.9375C73.3711 35.9375 74 35.3085 74 34.5312V28.9062C74 28.129 73.3711 27.5 72.5938 27.5Z" fill="#3374F2"/>
</g>
<defs>
<clipPath id="clip0">
<rect width="48" height="48" fill="white" transform="translate(26 26)"/>
</clipPath>
</defs>
</svg>
