<svg width="28" height="28" viewBox="0 0 28 28" fill="none" xmlns="http://www.w3.org/2000/svg">
<g clip-path="url(#clip0_31:307)">
<path d="M6.61719 16.1212V27.1249H9.89844V12.84L6.61719 16.1212Z" fill="#3374F2"/>
<path d="M11.5391 12.84V27.1249H14.8203V16.1212L11.5391 12.84Z" fill="#3374F2"/>
<path d="M16.4609 16.1212V27.1249H19.7422V12.84L16.4609 16.1212Z" fill="#3374F2"/>
<path d="M24.9591 7.6779L21.3828 11.1994V27.125H25.5391C25.9925 27.125 26.3594 26.7582 26.3594 26.3047V8.25786C26.3594 7.53167 25.4768 7.16017 24.9591 7.6779Z" fill="#3374F2"/>
<path d="M0.240352 22.4434C0.0865156 22.5972 0 22.8055 0 23.0234V26.3046C0 26.758 0.366898 27.1249 0.820312 27.1249H4.97656V17.7618L0.240352 22.4434Z" fill="#3374F2"/>
<path d="M27.1797 0.875H23.8985C23.445 0.875 23.0781 1.2419 23.0781 1.69531C23.0781 2.14873 23.445 2.51562 23.8985 2.51562H25.4806L15.6406 12.3009L11.2987 7.959C10.9783 7.63859 10.4592 7.63859 10.1387 7.959L0.240311 17.8027C-0.0801035 18.1232 -0.0801035 18.6423 0.240311 18.9627C0.560725 19.2831 1.07987 19.2831 1.40029 18.9627L10.7188 9.69899L15.0607 14.0409C15.3811 14.3613 15.9002 14.3613 16.2207 14.0409L26.3594 3.9568V4.97656C26.3594 5.42998 26.7263 5.79687 27.1797 5.79687C27.6331 5.79687 28 5.42998 28 4.97656V1.69531C28 1.2419 27.6331 0.875 27.1797 0.875Z" fill="#3374F2"/>
</g>
<defs>
<clipPath id="clip0_31:307">
<rect width="28" height="28" fill="white"/>
</clipPath>
</defs>
</svg>
