<svg width="27" height="28" viewBox="0 0 27 28" fill="none" xmlns="http://www.w3.org/2000/svg">
<path d="M3.72363 7.79167C3.72363 6.98497 4.03265 6.21131 4.5827 5.64088C5.13275 5.07046 5.87878 4.75 6.65667 4.75H20.3442C21.1221 4.75 21.8681 5.07046 22.4181 5.64088C22.9682 6.21131 23.2772 6.98497 23.2772 7.79167V15.9028C23.2772 16.7095 22.9682 17.4831 22.4181 18.0536C21.8681 18.624 21.1221 18.9444 20.3442 18.9444H6.65667C5.87878 18.9444 5.13275 18.624 4.5827 18.0536C4.03265 17.4831 3.72363 16.7095 3.72363 15.9028V7.79167Z" fill="#3374F2"/>
<path d="M2.74574 20.9722C2.48645 20.9722 2.23777 21.079 2.05442 21.2691C1.87107 21.4593 1.76807 21.7172 1.76807 21.9861C1.76807 22.255 1.87107 22.5128 2.05442 22.703C2.23777 22.8931 2.48645 22.9999 2.74574 22.9999H24.2547C24.514 22.9999 24.7626 22.8931 24.946 22.703C25.1293 22.5128 25.2324 22.255 25.2324 21.9861C25.2324 21.7172 25.1293 21.4593 24.946 21.2691C24.7626 21.079 24.514 20.9722 24.2547 20.9722H2.74574Z" fill="#3374F2"/>
</svg>
