<svg width="28" height="28" viewBox="0 0 28 28" fill="none" xmlns="http://www.w3.org/2000/svg">
<path d="M1.56702 6.85144C0.703282 6.85144 0 7.55472 0 8.41846V13.433C0 14.2967 0.703282 15 1.56702 15H3.44745C3.80036 15 4.12502 14.8809 4.38767 14.6828V6.85144H1.56702Z" fill="#3374F2"/>
<path d="M15.0436 9.20202C15.0436 8.82531 14.8945 8.47429 14.6356 8.21541C14.9283 7.89512 15.0775 7.46573 15.0367 7.01883C14.9634 6.22215 14.2457 5.59784 13.402 5.59784H9.53019C9.72199 5.01553 10.0291 3.94809 10.0291 3.09061C10.0291 1.73106 8.87392 0.583374 8.14869 0.583374C7.49744 0.583374 7.03233 0.950059 7.01229 0.965102C6.93833 1.02466 6.89508 1.11492 6.89508 1.21018V3.33568L5.08987 7.24637L5.01465 7.28459V14.0028C5.52486 14.2435 6.17047 14.3732 6.58167 14.3732H12.3352C13.0178 14.3732 13.6151 13.9131 13.7555 13.2782C13.8276 12.9516 13.7856 12.6225 13.6421 12.3367C14.1053 12.1035 14.4168 11.6265 14.4168 11.0825C14.4168 10.8606 14.366 10.6481 14.2695 10.4556C14.7327 10.2225 15.0436 9.74546 15.0436 9.20202Z" fill="#3374F2"/>
<path d="M12.567 17.2681C11.7033 17.2681 11 17.9713 11 18.8351V23.8496C11 24.7133 11.7033 25.4166 12.567 25.4166H14.4475C14.8004 25.4166 15.125 25.2975 15.3877 25.0994V17.2681H12.567Z" fill="#3374F2"/>
<path d="M26.0436 19.6186C26.0436 19.2419 25.8945 18.8909 25.6356 18.632C25.9283 18.3117 26.0775 17.8824 26.0367 17.4355C25.9634 16.6388 25.2457 16.0145 24.402 16.0145H20.5302C20.722 15.4322 21.0291 14.3647 21.0291 13.5072C21.0291 12.1477 19.8739 11 19.1487 11C18.4974 11 18.0323 11.3667 18.0123 11.3817C17.9383 11.4413 17.8951 11.5315 17.8951 11.6268V13.7523L16.0899 17.663L16.0146 17.7012V24.4194C16.5249 24.6601 17.1705 24.7898 17.5817 24.7898H23.3352C24.0178 24.7898 24.6151 24.3297 24.7555 23.6948C24.8276 23.3682 24.7856 23.0392 24.6421 22.7533C25.1053 22.5202 25.4168 22.0431 25.4168 21.4991C25.4168 21.2772 25.366 21.0647 25.2695 20.8723C25.7327 20.6391 26.0436 20.1621 26.0436 19.6186Z" fill="#3374F2"/>
</svg>
