<svg width="101" height="100" viewBox="0 0 101 100" fill="none" xmlns="http://www.w3.org/2000/svg">
<rect x="0.5" width="100" height="100" rx="24" fill="#3374F2" fill-opacity="0.08"/>
<g clip-path="url(#clip0)">
<path d="M31.5 47C28.744 47 26.5 49.244 26.5 52V68C26.5 70.756 28.744 73 31.5 73H37.5C38.626 73 39.6619 72.62 40.5 71.9879V47H31.5Z" fill="#3374F2"/>
<path d="M74.5 54.5C74.5 53.298 74.024 52.178 73.198 51.3519C74.132 50.33 74.608 48.9599 74.4779 47.534C74.2439 44.9919 71.9539 42.9999 69.262 42.9999H56.908C57.52 41.1419 58.4999 37.736 58.4999 35C58.4999 30.662 54.814 27 52.4999 27C50.422 27 48.9379 28.17 48.874 28.218C48.638 28.408 48.5 28.696 48.5 29V35.7819L42.74 48.26L42.5 48.3819V69.818C44.128 70.586 46.1879 71 47.5 71H65.858C68.036 71 69.942 69.5319 70.39 67.506C70.6199 66.464 70.486 65.414 70.028 64.502C71.506 63.758 72.5 62.2359 72.5 60.5C72.5 59.792 72.338 59.114 72.03 58.5C73.508 57.756 74.5 56.234 74.5 54.5Z" fill="#3374F2"/>
</g>
<defs>
<clipPath id="clip0">
<rect width="48" height="48" fill="white" transform="translate(26.5 26)"/>
</clipPath>
</defs>
</svg>
