<svg width="101" height="100" viewBox="0 0 101 100" fill="none" xmlns="http://www.w3.org/2000/svg">
<rect x="0.5" width="100" height="100" rx="24" fill="#3374F2" fill-opacity="0.08"/>
<g clip-path="url(#clip0)">
<path d="M49.9994 38.0004C53.3131 38.0004 55.9993 35.3142 55.9993 32.0005C55.9993 28.6869 53.3131 26.0006 49.9994 26.0006C46.6858 26.0006 43.9995 28.6869 43.9995 32.0005C43.9995 35.3142 46.6858 38.0004 49.9994 38.0004Z" fill="#3374F2"/>
<path d="M58.9873 54.3081L57.6253 43.7003C57.4723 42.1613 56.1883 41.0004 54.6434 41.0004H52.9994C52.6004 41.0004 52.2194 41.1594 51.9374 41.4384L49.9995 43.3763L48.0615 41.4384C47.7795 41.1594 47.3985 41.0004 46.9995 41.0004H45.3585C43.8106 41.0004 42.5266 42.1613 42.3766 43.6613L41.0116 54.3111C40.9576 54.7371 41.0896 55.1691 41.3746 55.4901C41.6596 55.8141 42.0676 56.0001 42.4996 56.0001H44.1196L45.3735 71.2998C45.5235 72.8358 46.8105 73.9998 48.3585 73.9998H51.6434C53.1914 73.9998 54.4754 72.8358 54.6314 71.2728L55.8824 56.0001H57.4993C57.9313 56.0001 58.3393 55.8141 58.6243 55.4901C58.9123 55.1691 59.0443 54.7371 58.9873 54.3081Z" fill="#3374F2"/>
<path d="M64.9992 38.0004C68.3128 38.0004 70.9991 35.3142 70.9991 32.0005C70.9991 28.6869 68.3128 26.0006 64.9992 26.0006C61.6855 26.0006 58.9993 28.6869 58.9993 32.0005C58.9993 35.3142 61.6855 38.0004 64.9992 38.0004Z" fill="#3374F2"/>
<path d="M34.9998 26.0006C31.6908 26.0006 28.9999 28.6916 28.9999 32.0005C28.9999 35.3094 31.6908 38.0004 34.9998 38.0004C38.3057 38.0004 40.9997 35.3094 40.9997 32.0005C40.9997 28.6916 38.3057 26.0006 34.9998 26.0006Z" fill="#3374F2"/>
<path d="M73.9871 54.3081L72.6251 43.7033C72.4721 42.1613 71.1912 41.0004 69.6432 41.0004H67.9992C67.6002 41.0004 67.2192 41.1594 66.9372 41.4384L64.9993 43.3763L63.0613 41.4384C62.7793 41.1594 62.3983 41.0004 62.0023 41.0004H60.3584C60.1724 41.0004 60.0044 41.0664 59.8274 41.0994C60.2144 41.7834 60.5174 42.5243 60.6073 43.3553L61.9663 53.9271C62.1343 55.2141 61.7323 56.5101 60.8683 57.4851C60.4604 57.9531 59.9384 58.2831 59.3804 58.5411L60.3764 68.2999C60.5294 69.8389 61.8133 70.9998 63.3613 70.9998H66.6462C68.1942 70.9998 69.4782 69.8359 69.6342 68.2729L70.8822 56.0001H72.4991C72.9311 56.0001 73.3391 55.8141 73.6241 55.4901C73.9121 55.1691 74.0441 54.7371 73.9871 54.3081Z" fill="#3374F2"/>
<path d="M39.1216 57.4701C38.2696 56.5071 37.8736 55.2141 38.0356 53.9331L39.4006 43.2803C39.4786 42.4823 39.7726 41.7624 40.1476 41.0964C39.9796 41.0664 39.8206 41.0004 39.6436 41.0004H37.9996C37.6006 41.0004 37.2196 41.1594 36.9376 41.4384L34.9997 43.3763L33.0617 41.4384C32.7797 41.1594 32.3987 41.0004 32.0027 41.0004H30.3587C28.8107 41.0004 27.5267 42.1613 27.3767 43.6613L26.0117 54.3111C25.9577 54.7371 26.0897 55.1691 26.3747 55.4901C26.6597 55.8141 27.0707 56.0001 27.4997 56.0001H29.1197L30.3737 68.2999C30.5237 69.8359 31.8106 70.9998 33.3586 70.9998H36.6436C38.1915 70.9998 39.4755 69.8359 39.6315 68.2729L40.6275 58.5381C40.0666 58.2771 39.5416 57.9441 39.1216 57.4701Z" fill="#3374F2"/>
</g>
<defs>
<clipPath id="clip0">
<rect width="48" height="48" fill="white" transform="translate(26 26)"/>
</clipPath>
</defs>
</svg>
